<?xml version="1.0" encoding="utf-8"?>
<!-- Generator: Adobe Illustrator 16.0.0, SVG Export Plug-In . SVG Version: 6.00 Build 0)  -->
<!DOCTYPE svg PUBLIC "-//W3C//DTD SVG 1.1//EN" "http://www.w3.org/Graphics/SVG/1.1/DTD/svg11.dtd">
<svg version="1.1" id="Capa_1" xmlns="http://www.w3.org/2000/svg" xmlns:xlink="http://www.w3.org/1999/xlink" x="0px" y="0px"
	 width="1695.119px" height="602px" viewBox="0 147.445 1695.119 602" enable-background="new 0 147.445 1695.119 602"
	 xml:space="preserve">
<rect x="578.522" y="169.04" fill="#FF0000" width="85.226" height="549.632"/>
<polygon fill="#FF0000" points="1512.391,641.391 1512.391,470.218 1679.953,470.218 1679.953,394.382 1512.391,394.382 
	1512.391,244.876 1688.619,244.876 1688.619,169.04 1427.165,169.04 1427.165,718.672 1695.119,718.672 1695.119,641.391 "/>
<path fill="#FF0000" d="M1284.882,418.938L1284.882,418.938L1284.882,418.938z"/>
<path fill="#FF0000" d="M1284.882,418.938L1284.882,418.938L1284.882,418.938z"/>
<g>
	<path fill="#FF0000" d="M1183.767,468.773l13.001,7.223l10.834,5.777c49.112,26.001,79.447,44.058,79.447,88.837
		c0,72.226-65.003,80.17-92.448,80.17c-44.779,0-88.114-18.778-104.004-26.724l-29.612-14.444v101.837l15.167,3.611
		c13.723,3.611,60.669,12.278,114.838,12.278c89.559,0,185.618-42.613,185.618-162.507c0-81.613-41.891-114.115-91.726-145.894l0,0
		l-62.113-34.668c-59.947-31.058-80.17-44.058-80.17-85.948c0-37.557,29.612-61.391,75.114-61.391
		c38.279,0,74.392,14.445,101.114,26.723l28.891,13.723V176.984l-15.89-3.611c-33.945-7.945-67.892-12.278-102.56-12.278
		c-104.004,0-171.173,57.78-171.173,146.617C1058.096,400.159,1122.376,434.827,1183.767,468.773"/>
	<polygon fill="#FF0000" points="1019.817,641.391 837.087,641.391 837.087,470.218 1004.649,470.218 1004.649,394.382 
		837.087,394.382 837.087,244.876 1013.317,244.876 1013.317,169.04 751.862,169.04 751.862,718.672 1019.817,718.672 	"/>
	<path fill="#FF0000" d="M324.29,719.394c13.723-5.056,27.445-11.556,40.445-18.778v-266.51H324.29V719.394z"/>
	<path fill="#FF0000" d="M388.571,684.004c14.444-10.834,26.723-23.112,38.279-36.835V434.105h-38.279V684.004z"/>
	<path fill="#FF0000" d="M254.954,733.117c15.167-0.723,30.334-2.89,44.779-6.501V434.105h-44.779V733.117z"/>
	<path fill="#FF0000" d="M451.406,613.945c22.39-37.557,35.391-82.336,35.391-129.282v-44.779v-5.057h-35.391
		C451.406,434.105,451.406,613.945,451.406,613.945z"/>
	<rect x="190.674" y="161.095" fill="#FF0000" width="39.724" height="252.788"/>
	<rect x="127.838" y="161.095" fill="#FF0000" width="39.002" height="252.788"/>
	<rect x="63.558" y="161.095" fill="#FF0000" width="40.446" height="252.788"/>
	<path fill="#FF0000" d="M43.335,161.095H35.39c-17.334,0-31.057,13.723-31.057,31.057v43.335v178.396h39.002V161.095z"/>
	<path fill="#FF0000" d="M0,439.161v44.779c0,132.895,101.837,241.231,230.397,248.454V434.105H0V439.161z M121.338,467.329
		c21.667,0,39.001,18.056,39.001,39.724c0,21.667-17.334,39.724-39.001,39.724c-21.668,0-39.002-18.057-39.002-39.724
		C82.336,484.663,100.393,467.329,121.338,467.329 M121.338,573.5c21.667,0,39.001,18.056,39.001,39.724
		c0,21.667-17.334,39.724-39.001,39.724c-21.668,0-39.002-18.057-39.002-39.724C82.336,591.556,100.393,573.5,121.338,573.5"/>
	<path fill="#FF0000" d="M456.461,161.095H254.954v252.788h231.842V235.487v-43.335
		C487.518,174.818,473.795,161.095,456.461,161.095 M364.736,377.77c-21.667,0-39.001-18.056-39.001-39.724
		c0-21.667,17.334-39.724,39.001-39.724c21.668,0,39.002,18.057,39.002,39.724C403.738,359.714,386.404,377.77,364.736,377.77
		 M364.736,273.043c-21.667,0-39.001-18.056-39.001-39.724s17.334-39.724,39.001-39.724c21.668,0,39.002,18.056,39.002,39.724
		S386.404,273.043,364.736,273.043"/>
</g>
</svg>
